<?xml version="1.0" encoding="UTF-8"?>
<svg id="Layer_1" xmlns="http://www.w3.org/2000/svg" xmlns:xlink="http://www.w3.org/1999/xlink" version="1.1" viewBox="0 0 106.5 61.5">
  <!-- Generator: Adobe Illustrator 29.1.0, SVG Export Plug-In . SVG Version: 2.1.0 Build 142)  -->
  <defs>
    <style>
      .st0 {
        fill: none;
      }

      .st1 {
        fill: #255be3;
      }

      .st2 {
        fill: #ff3c28;
      }

      .st3 {
        clip-path: url(#clippath);
      }
    </style>
    <clipPath id="clippath">
      <rect class="st0" width="106.5" height="61.5"/>
    </clipPath>
  </defs>
  <g class="st3">
    <g>
      <path class="st1" d="M0,41.7C0,30.8,9.1,22.2,20.8,22.2s13,3,16.5,7.6l-5.1,5.1c-1.3-1.7-3.1-3.1-5-4.1-2-1-4.1-1.5-6.3-1.5-7,0-12.6,5.2-12.6,12.5s5.6,12.5,12.6,12.5c2.3,0,4.5-.5,6.5-1.5,2-1,3.8-2.5,5.2-4.3l5,4.9c-3.4,4.8-9.9,8-16.8,8C9.1,61.3,0,52.8,0,41.7Z"/>
      <path class="st1" d="M44.2,23.5h8v36.5h-8V23.5Z"/>
      <path class="st1" d="M67.2,50.2v-19.9h-8.8v-6.8h9.1v-7.8l7.5-3.7v11.5h11.9v6.8h-11.9v18.6c0,3.7,2.1,5.3,6,5.3,2,0,4-.4,5.9-1.3v6.9c-2.3,1-4.8,1.5-7.4,1.5-7.1,0-12.4-3.9-12.4-11.1Z"/>
      <path class="st1" d="M93.4,23.5h8v36.5h-8V23.5Z"/>
      <path class="st2" d="M72.7.3c6.6,0,13.1,1.6,19,4.6,5.9,3,10.9,7.4,14.7,12.8h-9.4c-3.1-3.4-6.8-6.1-11-8-4.2-1.9-8.7-2.8-13.3-2.8s-9.1,1-13.3,2.8c-4.2,1.9-7.9,4.6-11,8h-9.4c3.8-5.4,8.9-9.8,14.7-12.8C59.6,1.9,66.1.3,72.7.3Z"/>
    </g>
  </g>
</svg>